<?xml version="1.0" encoding="UTF-8"?>
<svg version="1.1" xmlns="http://www.w3.org/2000/svg" width="64" height="64">
<path d="M0 0 C8.22731901 5.33702607 13.17600595 12.24676784 16.24609375 21.45703125 C17.01988724 32.63263883 16.66907809 42.09751848 9.49609375 51.26953125 C3.83839888 57.32726515 -3.20816717 61.04810493 -11.48828125 61.79296875 C-22.21775899 62.03437868 -31.06130731 60.78254818 -39.22265625 53.16015625 C-46.63556423 44.91518717 -48.33674531 36.17864189 -48.06640625 25.375 C-47.65975456 20.27660447 -46.50312638 16.72600661 -43.75390625 12.45703125 C-43.31820312 11.750625 -42.8825 11.04421875 -42.43359375 10.31640625 C-33.39051009 -3.02584834 -14.42019947 -6.88181526 0 0 Z M-35.19140625 13.95703125 C-39.54545429 19.54993826 -41.13449877 25.61927738 -40.578125 32.69140625 C-39.33191253 39.99244902 -35.53580431 44.87868671 -30.19140625 49.83203125 C-23.44779002 54.3277754 -16.63777627 54.15424424 -8.75390625 53.45703125 C-2.09431292 51.77617542 2.43156822 46.99324803 6.24609375 41.45703125 C9.25661976 35.41577435 9.0430662 29.0410289 8.24609375 22.45703125 C5.23647271 13.88590516 -0.88022595 9.3938714 -8.75390625 5.45703125 C-19.82414729 4.42792518 -27.56706648 5.60133995 -35.19140625 13.95703125 Z " fill="#E16160" transform="translate(47.75390625,2.54296875)"/>
<path d="M0 0 C0.33 0 0.66 0 1 0 C1.07476563 0.556875 1.14953125 1.11375 1.2265625 1.6875 C2.42121321 8.62115903 5.0418892 14.15279348 10.87890625 18.3515625 C12.54105167 19.31623145 14.26797348 20.16729494 16 21 C16.66 21.33 17.32 21.66 18 22 C28.32403234 22.82646453 34.80486705 21.89634971 43 15.75 C43.66 15.1725 44.32 14.595 45 14 C44.835 14.804375 44.67 15.60875 44.5 16.4375 C43.96808161 18.7284443 43.96808161 18.7284443 44 20 C45.32 20 46.64 20 48 20 C48 19.34 48 18.68 48 18 C48.66 18 49.32 18 50 18 C50 17.34 50 16.68 50 16 C50.66 16 51.32 16 52 16 C52 14.02 52 12.04 52 10 C52.66 10 53.32 10 54 10 C54.185625 8.7934375 54.185625 8.7934375 54.375 7.5625 C54.58125 6.716875 54.7875 5.87125 55 5 C55.66 4.67 56.32 4.34 57 4 C55.578543 12.9551791 52.32083663 19.63816174 45.125 25.375 C36.12033198 31.44556271 27.55390798 31.93648835 17 31 C8.37690811 29.02037968 1.96800616 24.26409906 -2.875 16.9375 C-4.56936699 14.01289955 -5.8986032 11.44749116 -6 8 C-5.34 7.34 -4.68 6.68 -4 6 C-3.80664062 6.56589844 -3.61328125 7.13179687 -3.4140625 7.71484375 C-3.15367188 8.44832031 -2.89328125 9.18179688 -2.625 9.9375 C-2.36976562 10.66839844 -2.11453125 11.39929688 -1.8515625 12.15234375 C-1.14728587 14.18682116 -1.14728587 14.18682116 1 15 C0.67 14.01 0.34 13.02 0 12 C-0.068991 9.93854893 -0.08467727 7.87498599 -0.0625 5.8125 C-0.05347656 4.72582031 -0.04445313 3.63914063 -0.03515625 2.51953125 C-0.02355469 1.68808594 -0.01195312 0.85664062 0 0 Z " fill="#E46868" transform="translate(7,33)"/>
<path d="M0 0 C0.33 0.66 0.66 1.32 1 2 C1.66 2 2.32 2 3 2 C2.938125 2.94875 2.87625 3.8975 2.8125 4.875 C2.874375 5.90625 2.93625 6.9375 3 8 C3.99 8.66 4.98 9.32 6 10 C7.13236808 15.55082391 5.94472483 20.21482214 3 25 C2.34 25 1.68 25 1 25 C1 26.98 1 28.96 1 31 C0.34 31 -0.32 31 -1 31 C-1 31.66 -1 32.32 -1 33 C-1.66 33 -2.32 33 -3 33 C-3 33.66 -3 34.32 -3 35 C-4.98 35.66 -6.96 36.32 -9 37 C-9 36.01 -9 35.02 -9 34 C-8.01 33.505 -8.01 33.505 -7 33 C-6.52079391 31.40264637 -6.0452471 29.80230333 -5.66015625 28.1796875 C-5 26 -5 26 -3.4375 22.7734375 C-1.6589526 18.70988686 -1.72147265 15.11945894 -1.9375 10.75 C-2.25353622 3.38030433 -2.25353622 3.38030433 0 0 Z " fill="#DC4A49" transform="translate(58,18)"/>
<path d="M0 0 C1.40919094 4.22757283 -0.00636553 6.446026 -1.70703125 10.43359375 C-5.06459236 17.09799752 -10.19608433 21.89842037 -17 25 C-20 25.3125 -20 25.3125 -22 25 C-21.34 24.67 -20.68 24.34 -20 24 C-20 23.01 -20 22.02 -20 21 C-19.34 21 -18.68 21 -18 21 C-18 20.34 -18 19.68 -18 19 C-19.11375 19.515625 -20.2275 20.03125 -21.375 20.5625 C-26.26557094 22.41724247 -30.95080829 22.3090497 -36 21 C-36.33 20.34 -36.66 19.68 -37 19 C-36.154375 18.97421875 -35.30875 18.9484375 -34.4375 18.921875 C-24.56644126 18.42832206 -18.45763888 16.52543402 -11 10 C-11.165 10.804375 -11.33 11.60875 -11.5 12.4375 C-12.03191839 14.7284443 -12.03191839 14.7284443 -12 16 C-10.68 16 -9.36 16 -8 16 C-8 15.34 -8 14.68 -8 14 C-7.34 14 -6.68 14 -6 14 C-6 13.34 -6 12.68 -6 12 C-5.34 12 -4.68 12 -4 12 C-4 10.02 -4 8.04 -4 6 C-3.34 6 -2.68 6 -2 6 C-1.855625 5.195625 -1.71125 4.39125 -1.5625 3.5625 C-1 1 -1 1 0 0 Z " fill="#DF6767" transform="translate(63,37)"/>
<path d="M0 0 C0.61875 0.144375 1.2375 0.28875 1.875 0.4375 C4.60467596 0.92884167 7.31076633 1.34607367 10.0625 1.6875 C10.89910156 1.79449219 11.73570313 1.90148438 12.59765625 2.01171875 C15.32497256 1.99841477 16.61974246 1.2499944 19 0 C20.32 0 21.64 0 23 0 C23 0.66 23 1.32 23 2 C22.34 2 21.68 2 21 2 C21 3.65 21 5.3 21 7 C17.29553447 8.23482184 13.8556992 8.14558202 10 8.125 C9.27554687 8.12886719 8.55109375 8.13273437 7.8046875 8.13671875 C4.60717121 8.13081927 2.05417393 8.01805798 -1 7 C-1 6.34 -1 5.68 -1 5 C-1.99 4.34 -2.98 3.68 -4 3 C-1 2 -1 2 2 2 C1.34 1.34 0.68 0.68 0 0 Z " fill="#E66463" transform="translate(22,56)"/>
<path d="M0 0 C1.2375 0.7425 1.2375 0.7425 2.5 1.5 C2.5 2.82 2.5 4.14 2.5 5.5 C-5.75 5.5 -14 5.5 -22.5 5.5 C-21.5 2.5 -21.5 2.5 -19.49609375 1.33203125 C-12.50522236 -1.45364422 -7.22584822 -3.09679209 0 0 Z " fill="#DF4544" transform="translate(39.5,1.5)"/>
<path d="M0 0 C-0.71027344 0.26554688 -1.42054687 0.53109375 -2.15234375 0.8046875 C-3.53099609 1.33449219 -3.53099609 1.33449219 -4.9375 1.875 C-6.31228516 2.39707031 -6.31228516 2.39707031 -7.71484375 2.9296875 C-10.14941056 3.7819086 -10.14941056 3.7819086 -11 6 C-2.75 6 5.5 6 14 6 C14 4.68 14 3.36 14 2 C12.02 1.34 10.04 0.68 8 0 C11.64120668 -1.33256282 13.66876554 -0.65840377 17.1875 0.8125 C18.06792969 1.16957031 18.94835938 1.52664063 19.85546875 1.89453125 C22 3 22 3 23 5 C20.36 5 17.72 5 15 5 C15 5.66 15 6.32 15 7 C15.66 7.33 16.32 7.66 17 8 C17 8.66 17 9.32 17 10 C15.7315625 9.51466797 15.7315625 9.51466797 14.4375 9.01953125 C10.7943023 7.93899193 7.79218255 7.69997428 4 7.6875 C2.824375 7.67074219 1.64875 7.65398438 0.4375 7.63671875 C-3.32578212 8.03442925 -5.7120921 9.1887833 -9 11 C-9.66 11 -10.32 11 -11 11 C-11.66 10.01 -12.32 9.02 -13 8 C-13.99 8.495 -13.99 8.495 -15 9 C-15.33 7.68 -15.66 6.36 -16 5 C-6.34877384 -1.89373297 -6.34877384 -1.89373297 0 0 Z " fill="#E16665" transform="translate(28,1)"/>
<path d="M0 0 C0.33 0.99 0.66 1.98 1 3 C1.66 3 2.32 3 3 3 C3.33 2.34 3.66 1.68 4 1 C4.66 1 5.32 1 6 1 C6.33 8.26 6.66 15.52 7 23 C4 22 4 22 2.3125 18.9375 C1.879375 17.968125 1.44625 16.99875 1 16 C0.67 16 0.34 16 0 16 C0 10.72 0 5.44 0 0 Z " fill="#D74849" transform="translate(1,25)"/>
<path d="M0 0 C0.33 0 0.66 0 1 0 C1.12117187 0.59167969 1.24234375 1.18335938 1.3671875 1.79296875 C2.26744643 6.03803585 3.20456621 10.02439661 5 14 C3.68 14.33 2.36 14.66 1 15 C-0.09506492 11.71480525 -0.09960608 9.26336585 -0.0625 5.8125 C-0.05347656 4.72582031 -0.04445313 3.63914063 -0.03515625 2.51953125 C-0.02355469 1.68808594 -0.01195312 0.85664062 0 0 Z M-5 6 C-3.97354726 8.05290548 -2.95439587 10.09975903 -2 12.1875 C-1.12855431 14.17201523 -1.12855431 14.17201523 1 15 C1 15.66 1 16.32 1 17 C1.66 17 2.32 17 3 17 C3.12375 17.61875 3.2475 18.2375 3.375 18.875 C3.87197356 21.19120832 3.87197356 21.19120832 6 23 C5.34 23.33 4.68 23.66 4 24 C-0.80747087 19.45961085 -5.42676297 14.87884432 -6 8 C-5.67 7.34 -5.34 6.68 -5 6 Z " fill="#E07172" transform="translate(7,33)"/>
<path d="M0 0 C0.99 0.66 1.98 1.32 3 2 C3.29296875 4.3828125 3.29296875 4.3828125 3.1875 7.125 C3.16042969 8.03507812 3.13335937 8.94515625 3.10546875 9.8828125 C3.07066406 10.58148438 3.03585938 11.28015625 3 12 C2.34 12 1.68 12 1 12 C1 12.66 1 13.32 1 14 C0.34 14 -0.32 14 -1 14 C-1 14.66 -1 15.32 -1 16 C-2.98 16.66 -4.96 17.32 -7 18 C-7 17.01 -7 16.02 -7 15 C-6.34 14.67 -5.68 14.34 -5 14 C-4.50091665 12.33638883 -4.00938021 10.66974515 -3.57421875 8.98828125 C-2.67011176 5.85773392 -1.33350209 2.97007285 0 0 Z " fill="#E15C5B" transform="translate(56,37)"/>
<path d="M0 0 C0.66 0 1.32 0 2 0 C2.33 0.66 2.66 1.32 3 2 C5.64 1.67 8.28 1.34 11 1 C14.57142857 9.42857143 14.57142857 9.42857143 13 14 C12.01 13.34 11.02 12.68 10 12 C10.33 9.69 10.66 7.38 11 5 C10.01 4.67 9.02 4.34 8 4 C6.7960663 7.75399798 6.90122383 11.33217412 6.9375 15.25 C6.94652344 16.51328125 6.95554687 17.7765625 6.96484375 19.078125 C6.97644531 20.04234375 6.98804688 21.0065625 7 22 C6.67 22 6.34 22 6 22 C5.98582031 21.24976562 5.97164062 20.49953125 5.95703125 19.7265625 C5.59966937 12.05776974 3.94250077 6.57568395 0 0 Z " fill="#E78282" transform="translate(50,15)"/>
<path d="M0 0 C5.77378925 0.4811491 9.95859836 2.18467181 15 5 C12.07175348 5.97608217 10.04386724 6.08226668 7 6 C7 6.66 7 7.32 7 8 C7.66 8.33 8.32 8.66 9 9 C9 9.66 9 10.32 9 11 C8.15179688 10.68289063 7.30359375 10.36578125 6.4296875 10.0390625 C2.90522775 8.97128768 -0.20670957 8.59958921 -3.875 8.375 C-5.02742188 8.30023438 -6.17984375 8.22546875 -7.3671875 8.1484375 C-8.67042969 8.07496094 -8.67042969 8.07496094 -10 8 C-10 7.67 -10 7.34 -10 7 C-4.72 7 0.56 7 6 7 C6 5.68 6 4.36 6 3 C4.02 2.34 2.04 1.68 0 1 C0 0.67 0 0.34 0 0 Z " fill="#E78887" transform="translate(36,0)"/>
<path d="M0 0 C1.33333333 2 2.66666667 4 4 6 C4.66 6 5.32 6 6 6 C6.33 6.99 6.66 7.98 7 9 C5.75 10.5625 5.75 10.5625 4 12 C1.8125 11.6875 1.8125 11.6875 0 11 C0 10.34 0 9.68 0 9 C-0.66 8.34 -1.32 7.68 -2 7 C-2 5.68 -2 4.36 -2 3 C-2.66 3 -3.32 3 -4 3 C-4 2.34 -4 1.68 -4 1 C-2 0 -2 0 0 0 Z " fill="#DF4E4D" transform="translate(12,47)"/>
<path d="M0 0 C1.0209375 0.2165625 1.0209375 0.2165625 2.0625 0.4375 C5.36273082 1.06945909 8.67144426 1.54313941 12 2 C12 2.66 12 3.32 12 4 C9.74692266 5.90103401 7.98286025 6.96366859 4.9921875 7.07421875 C1.85073013 6.77862036 -0.4857318 6.40177203 -3 4.4375 C-3.33 3.963125 -3.66 3.48875 -4 3 C-1 2 -1 2 2 2 C1.34 1.34 0.68 0.68 0 0 Z " fill="#DD4544" transform="translate(22,56)"/>
<path d="M0 0 C1.40625978 4.21877935 -0.00862901 6.42459643 -1.67578125 10.4140625 C-3.61305609 14.19717737 -6.06894374 16.93571391 -9 20 C-9.33 18.68 -9.66 17.36 -10 16 C-9.34 16 -8.68 16 -8 16 C-8 15.34 -8 14.68 -8 14 C-7.34 14 -6.68 14 -6 14 C-6 13.34 -6 12.68 -6 12 C-5.34 12 -4.68 12 -4 12 C-4 10.02 -4 8.04 -4 6 C-3.34 6 -2.68 6 -2 6 C-1.855625 5.195625 -1.71125 4.39125 -1.5625 3.5625 C-1 1 -1 1 0 0 Z " fill="#DD7C7C" transform="translate(63,37)"/>
<path d="M0 0 C0.99 0.33 1.98 0.66 3 1 C3 1.99 3 2.98 3 4 C3.66 4 4.32 4 5 4 C5.33 7.3 5.66 10.6 6 14 C3 13 3 13 2.05078125 11.328125 C0.66829057 7.43666975 -0.39357798 4.19816517 0 0 Z " fill="#E44241" transform="translate(2,34)"/>
<path d="M0 0 C0.33 0.66 0.66 1.32 1 2 C1.66 2 2.32 2 3 2 C2.979375 2.9075 2.95875 3.815 2.9375 4.75 C2.84039034 7.85671113 2.84039034 7.85671113 3.6875 10.125 C4 12 4 12 2.5625 14.25 C2.046875 14.8275 1.53125 15.405 1 16 C1 13.36 1 10.72 1 8 C0.34 8 -0.32 8 -1 8 C-1.625 5.6875 -1.625 5.6875 -2 3 C-1.34 2.01 -0.68 1.02 0 0 Z " fill="#E44241" transform="translate(58,18)"/>
<path d="M0 0 C1.375 1.875 1.375 1.875 2 4 C1.67 4.99 1.34 5.98 1 7 C-2.4375 5.75 -2.4375 5.75 -6 4 C-6.9375 1.8125 -6.9375 1.8125 -7 0 C-4.25509788 -1.37245106 -2.87939419 -0.93580311 0 0 Z " fill="#DF4442" transform="translate(50,6)"/>
<path d="M0 0 C1.32 0.66 2.64 1.32 4 2 C3.67 3.32 3.34 4.64 3 6 C2.34 6 1.68 6 1 6 C1 6.66 1 7.32 1 8 C-0.98 8.66 -2.96 9.32 -5 10 C-5 9.01 -5 8.02 -5 7 C-4.34 6.67 -3.68 6.34 -3 6 C-2.34786708 3.97536745 -2.34786708 3.97536745 -2 2 C-1.34 2 -0.68 2 0 2 C0 1.34 0 0.68 0 0 Z " fill="#E14442" transform="translate(54,45)"/>
<path d="M0 0 C0 0.66 0 1.32 0 2 C-0.66 2 -1.32 2 -2 2 C-2 2.99 -2 3.98 -2 5 C-3.98 5.33 -5.96 5.66 -8 6 C-8 4.68 -8 3.36 -8 2 C-4.91190305 0.23537317 -3.76687864 0 0 0 Z " fill="#E24340" transform="translate(45,56)"/>
<path d="M0 0 C0.598125 0.20625 1.19625 0.4125 1.8125 0.625 C0.85520084 1.75088014 -0.10337895 2.8756715 -1.0625 4 C-1.59617187 4.62648438 -2.12984375 5.25296875 -2.6796875 5.8984375 C-3.80182007 7.18336651 -4.98121975 8.41871975 -6.1875 9.625 C-5.69921875 3.5703125 -5.69921875 3.5703125 -5.1875 1.625 C-2.1875 -0.375 -2.1875 -0.375 0 0 Z " fill="#E16C6F" transform="translate(15.1875,12.375)"/>
<path d="M0 0 C4.95 0 9.9 0 15 0 C10.47026571 3.39730072 10.47026571 3.39730072 5.8125 2.8125 C4.49185547 2.66748047 4.49185547 2.66748047 3.14453125 2.51953125 C2.43683594 2.34808594 1.72914062 2.17664062 1 2 C0.67 1.34 0.34 0.68 0 0 Z " fill="#DF7F7E" transform="translate(26,56)"/>
<path d="M0 0 C0.99 0 1.98 0 3 0 C2.67 2.97 2.34 5.94 2 9 C1.34 9 0.68 9 0 9 C-1.125 6.1875 -1.125 6.1875 -2 3 C-1.34 2.01 -0.68 1.02 0 0 Z " fill="#DF4542" transform="translate(7,14)"/>
<path d="M0 0 C2.9375 0.75 2.9375 0.75 6 2 C6.75 4 6.75 4 7 6 C7.66 6.66 8.32 7.32 9 8 C8.01 8.495 8.01 8.495 7 9 C4.03595495 6.19195732 1.55500981 3.81684226 0 0 Z " fill="#E17F7D" transform="translate(4,48)"/>
<path d="M0 0 C-1.04800781 0.39832031 -1.04800781 0.39832031 -2.1171875 0.8046875 C-3.48230469 1.33449219 -3.48230469 1.33449219 -4.875 1.875 C-5.77992187 2.22304688 -6.68484375 2.57109375 -7.6171875 2.9296875 C-10.12217007 3.88530895 -10.12217007 3.88530895 -12 6 C-14.125 5.625 -14.125 5.625 -16 5 C-6.34877384 -1.89373297 -6.34877384 -1.89373297 0 0 Z " fill="#E28B8B" transform="translate(28,1)"/>
<path d="M0 0 C2.53199972 2.53199972 3.11946497 4.54559335 4 8 C3.625 10.875 3.625 10.875 3 13 C2.01 12.34 1.02 11.68 0 11 C-0.29296875 8.3984375 -0.29296875 8.3984375 -0.1875 5.375 C-0.16042969 4.37210938 -0.13335937 3.36921875 -0.10546875 2.3359375 C-0.07066406 1.56507812 -0.03585938 0.79421875 0 0 Z " fill="#DF7776" transform="translate(60,16)"/>
<path d="M0 0 C0 4.38968456 -2.12805101 5.76905739 -5 9 C-5.33 7.68 -5.66 6.36 -6 5 C-5.34 5 -4.68 5 -4 5 C-4 4.34 -4 3.68 -4 3 C-3.34 3 -2.68 3 -2 3 C-2 2.34 -2 1.68 -2 1 C-1.34 0.67 -0.68 0.34 0 0 Z " fill="#E59691" transform="translate(59,48)"/>
<path d="M0 0 C0.33 2.31 0.66 4.62 1 7 C0.01 6.34 -0.98 5.68 -2 5 C-2 4.34 -2 3.68 -2 3 C-2.66 3 -3.32 3 -4 3 C-4 2.34 -4 1.68 -4 1 C-2 0 -2 0 0 0 Z " fill="#E04441" transform="translate(12,47)"/>
<path d="M0 0 C2.64 1.98 5.28 3.96 8 6 C7.34 6.66 6.68 7.32 6 8 C1.125 4.5 1.125 4.5 0 0 Z " fill="#E17D80" transform="translate(12,47)"/>
<path d="M0 0 C0.33 0.99 0.66 1.98 1 3 C1.66 3 2.32 3 3 3 C2.67 4.65 2.34 6.3 2 8 C1.34 8 0.68 8 0 8 C-0.66 7.34 -1.32 6.68 -2 6 C-2 5.01 -2 4.02 -2 3 C-1.34 3 -0.68 3 0 3 C0 2.01 0 1.02 0 0 Z " fill="#E04340" transform="translate(59,35)"/>
</svg>
