<?xml version="1.0" encoding="UTF-8"?>
<svg version="1.1" xmlns="http://www.w3.org/2000/svg" width="32" height="32">
<path d="M0 0 C1.65 0 3.3 0 5 0 C5 4.29 5 8.58 5 13 C9.29 13 13.58 13 18 13 C18 14.98 18 16.96 18 19 C13.71 19 9.42 19 5 19 C5 22.63 5 26.26 5 30 C3.02 30.99 3.02 30.99 1 32 C0.34 31.67 -0.32 31.34 -1 31 C-1 27.04 -1 23.08 -1 19 C-5.29 19 -9.58 19 -14 19 C-14 17.02 -14 15.04 -14 13 C-9.71 13 -5.42 13 -1 13 C-1.020625 11.040625 -1.04125 9.08125 -1.0625 7.0625 C-1.08377188 5.04167124 -1.07244053 3.01964199 -1 1 C-0.67 0.67 -0.34 0.34 0 0 Z " fill="#7EE9D4" transform="translate(14,0)"/>
<path d="M0 0 C1.65 0 3.3 0 5 0 C5 4.29 5 8.58 5 13 C4.34 13 3.68 13 3 13 C3 9.7 3 6.4 3 3 C2.34 3 1.68 3 1 3 C1 5.97 1 8.94 1 12 C0.01 12.495 0.01 12.495 -1 13 C-1.02686553 11.02090602 -1.04633375 9.04171029 -1.0625 7.0625 C-1.07410156 5.96035156 -1.08570313 4.85820312 -1.09765625 3.72265625 C-1 1 -1 1 0 0 Z " fill="#89E6D5" transform="translate(14,0)"/>
</svg>
